<?xml version="1.0" standalone="no"?>
<!DOCTYPE svg PUBLIC "-//W3C//DTD SVG 20010904//EN"
 "http://www.w3.org/TR/2001/REC-SVG-20010904/DTD/svg10.dtd">
<svg version="1.0" xmlns="http://www.w3.org/2000/svg"
 width="638.000000pt" height="345.000000pt" viewBox="0 0 638.000000 345.000000"
 preserveAspectRatio="xMidYMid meet">
  <style type="text/css">
    .st0{fill:#FFFFFF;}
  </style>

<g transform="translate(0.000000,345.000000) scale(0.100000,-0.100000)"
fill="#000000" stroke="none">
<path class="st0" d="M1516 2327 c-149 -255 -506 -879 -506 -883 0 -2 257 -4 570 -4 314 0
570 3 570 6 0 17 -118 203 -145 229 -17 17 -85 122 -150 235 -65 113 -126 219
-136 236 -13 21 -15 34 -8 41 7 7 -12 47 -57 126 -38 65 -70 117 -73 117 -3 0
-33 -46 -65 -103z m122 -41 c28 -52 52 -96 52 -99 0 -3 -25 -17 -55 -31 -146
-72 -207 -244 -140 -394 79 -176 297 -235 453 -122 l41 30 42 -73 c23 -39 48
-82 55 -94 8 -12 14 -27 14 -33 0 -7 -167 -10 -521 -10 -428 0 -520 3 -517 14
4 18 512 905 518 905 3 0 29 -42 58 -93z"/>
<path class="st0" d="M1250 1720 c0 -5 5 -10 11 -10 5 0 7 5 4 10 -3 6 -8 10 -11 10 -2 0
-4 -4 -4 -10z"/>
<path class="st0" d="M1415 1680 c-3 -5 -1 -10 4 -10 6 0 11 5 11 10 0 6 -2 10 -4 10 -3 0
-8 -4 -11 -10z"/>
<path class="st0" d="M4008 2209 c-35 -20 -19 -79 21 -79 51 0 69 46 29 74 -26 19 -27 19
-50 5z"/>
<path class="st0" d="M1741 2169 c9 -13 68 -114 132 -224 154 -266 139 -249 168 -194 20
37 24 59 24 134 0 81 -3 95 -30 144 -52 94 -130 144 -245 157 l-64 7 15 -24z"/>
<path class="st0" d="M2314 2143 c-18 -42 -94 -252 -94 -259 0 -2 18 -4 39 -4 36 0 40 3
54 39 15 37 17 38 63 37 45 -1 48 -3 59 -36 8 -23 20 -36 36 -40 26 -7 59 -2
58 9 0 3 -23 69 -52 146 l-52 140 -48 3 c-47 3 -48 2 -63 -35z m80 -95 c6 -25
4 -28 -19 -28 -28 0 -29 4 -14 50 13 35 21 29 33 -22z"/>
<path class="st0" d="M3120 2141 c0 -20 -6 -30 -20 -34 -25 -7 -26 -37 -1 -44 16 -4 19
-17 23 -84 3 -44 10 -85 16 -91 7 -7 33 -12 59 -12 42 -1 48 2 51 20 2 16 -4
23 -22 28 -25 6 -26 10 -26 71 0 63 1 65 25 65 20 0 25 5 25 25 0 20 -5 25
-25 25 -21 0 -25 5 -25 30 0 28 -2 30 -40 30 -37 0 -40 -2 -40 -29z"/>
<path class="st0" d="M2665 2105 c-19 -10 -31 -12 -33 -6 -2 6 -21 11 -43 11 l-39 0 0
-113 c0 -63 2 -116 5 -118 2 -3 20 -3 38 -1 l35 4 4 80 c5 89 22 117 59 97 15
-8 19 -24 21 -97 l3 -87 40 0 40 0 -3 100 c-3 76 -8 104 -20 117 -25 26 -72
31 -107 13z"/>
<path class="st0" d="M2913 2113 c-21 -4 -73 -49 -73 -63 0 -13 30 -20 56 -14 13 3 24 10
24 14 0 16 30 19 45 4 21 -22 12 -31 -41 -39 -80 -12 -115 -71 -73 -122 18
-21 67 -26 98 -10 17 8 31 11 33 6 2 -4 19 -10 38 -11 l35 -3 -1 81 c-1 112
-8 133 -49 150 -34 14 -50 15 -92 7z m58 -146 c-1 -4 -1 -13 -1 -21 0 -19 -29
-29 -46 -15 -7 6 -10 17 -8 24 8 20 57 31 55 12z"/>
<path class="st0" d="M3354 2109 c-52 -15 -78 -52 -78 -114 -1 -46 3 -58 28 -84 35 -37 78
-47 134 -32 57 16 82 51 82 116 0 64 -24 100 -78 115 -42 11 -46 11 -88 -1z
m70 -55 c32 -32 13 -134 -25 -134 -22 0 -49 42 -49 75 0 22 8 43 20 55 24 24
34 25 54 4z"/>
<path class="st0" d="M3675 2108 c-11 -6 -23 -16 -27 -22 -5 -7 -8 -4 -8 7 0 13 -9 17 -40
17 l-41 0 3 -117 3 -118 35 0 35 0 5 88 c5 93 17 115 52 96 14 -8 18 -25 20
-97 l3 -87 38 -1 37 -1 0 68 c0 83 12 119 40 119 27 0 40 -36 40 -115 l0 -63
36 -4 c46 -5 48 1 41 108 -5 94 -18 118 -69 129 -23 5 -38 2 -60 -15 -27 -20
-31 -20 -47 -6 -24 21 -72 29 -96 14z"/>
<path class="st0" d="M4193 2113 c-36 -7 -72 -51 -78 -96 -8 -50 4 -83 40 -117 52 -48 163
-26 186 38 8 20 5 22 -31 22 -22 0 -40 -4 -40 -10 0 -5 -10 -15 -22 -21 -18
-10 -24 -8 -40 11 -29 36 -23 101 13 120 14 8 24 4 45 -15 41 -38 89 -30 73
12 -15 40 -88 68 -146 56z"/>
<path class="st0" d="M3996 2079 c-7 -37 -8 -193 -1 -200 2 -3 20 -3 40 -1 l35 4 0 114 0
114 -34 0 c-30 0 -34 -4 -40 -31z"/>
<path class="st0" d="M3057 1764 c-8 -8 -10 -318 -2 -325 2 -3 20 -3 39 -1 l34 4 4 80 c3
64 7 83 22 94 13 9 24 10 37 3 15 -8 19 -24 21 -97 l3 -87 38 -1 37 -1 0 96
c0 112 -11 137 -66 147 -28 5 -42 2 -65 -15 l-29 -22 0 61 c0 52 -2 60 -19 60
-11 0 -26 2 -33 5 -8 3 -17 2 -21 -1z"/>
<path class="st0" d="M4636 1757 c-27 -20 -17 -51 18 -55 42 -5 59 24 30 52 -19 19 -25 20
-48 3z"/>
<path class="st0" d="M3902 1608 c6 -168 12 -182 73 -176 35 3 46 36 20 58 -12 10 -15 37
-15 141 l0 129 -41 0 -42 0 5 -152z"/>
<path class="st0" d="M2220 1710 c0 -29 1 -30 50 -30 l49 0 3 -122 3 -123 35 0 35 0 3 123
3 122 49 0 c49 0 50 1 50 30 l0 30 -140 0 -140 0 0 -30z"/>
<path class="st0" d="M2594 1669 c-16 -5 -41 -20 -55 -35 -32 -34 -35 -130 -5 -163 48 -53
152 -49 196 7 l22 27 -35 3 c-21 2 -46 -4 -61 -13 -19 -13 -29 -14 -45 -5 -12
6 -21 17 -21 25 0 12 14 15 58 15 82 0 102 8 102 37 0 29 -25 75 -49 90 -27
17 -74 22 -107 12z m60 -55 c25 -25 19 -34 -24 -34 -22 0 -40 3 -40 8 0 12 14
29 30 35 8 3 16 6 17 6 1 1 9 -6 17 -15z"/>
<path class="st0" d="M2865 1672 c-57 -20 -85 -60 -85 -123 0 -32 7 -55 21 -72 23 -30 89
-52 128 -42 30 7 81 53 81 72 0 21 -63 16 -83 -7 -20 -24 -31 -25 -51 -4 -21
20 -21 97 -1 118 17 17 39 12 67 -16 22 -22 57 -23 65 -2 9 24 -46 74 -87 79
-19 2 -44 1 -55 -3z"/>
<path class="st0" d="M3455 1668 c-11 -6 -23 -16 -27 -22 -5 -7 -8 -4 -8 7 0 13 -9 17 -40
17 l-41 0 3 -117 3 -118 35 0 35 0 5 82 c5 88 15 107 51 101 23 -3 24 -8 29
-91 3 -48 8 -87 13 -87 4 0 21 0 38 0 l31 0 -4 100 c-2 72 -7 103 -18 114 -21
20 -81 29 -105 14z"/>
<path class="st0" d="M3693 1669 c-45 -13 -75 -59 -75 -115 0 -56 22 -91 70 -111 105 -44
206 45 170 151 -22 65 -92 97 -165 75z m88 -76 c14 -39 11 -71 -11 -93 -24
-24 -34 -25 -54 -4 -17 16 -22 90 -8 110 20 30 59 23 73 -13z"/>
<path class="st0" d="M4113 1673 c-54 -11 -94 -88 -78 -150 9 -39 53 -82 90 -89 52 -9 113
12 135 49 35 57 20 144 -31 175 -21 14 -85 22 -116 15z m85 -113 c5 -68 -40
-104 -72 -58 -23 32 -20 84 5 109 18 18 23 19 42 6 16 -10 23 -26 25 -57z"/>
<path class="st0" d="M4373 1670 c-34 -14 -63 -68 -63 -118 0 -84 94 -141 158 -96 21 14
22 14 22 -8 0 -13 -5 -29 -12 -36 -15 -15 -74 -16 -83 -2 -3 6 -23 10 -45 10
-34 0 -38 -2 -33 -21 20 -74 196 -79 234 -6 7 12 14 79 17 150 l5 127 -42 0
c-22 0 -41 -4 -41 -9 0 -6 -12 -3 -27 5 -32 16 -58 17 -90 4z m99 -57 c23 -20
24 -85 2 -107 -35 -35 -84 -5 -84 52 0 61 44 90 82 55z"/>
<path class="st0" d="M4814 1670 c-75 -30 -99 -141 -45 -202 26 -30 35 -33 85 -33 47 0 59
4 85 29 17 17 31 33 31 38 0 14 -58 8 -88 -9 -25 -14 -32 -15 -46 -4 -30 25
-19 41 27 41 23 0 59 3 80 6 45 8 49 33 14 85 -36 53 -89 71 -143 49z m75 -63
c15 -19 4 -27 -36 -27 -31 0 -44 16 -26 33 11 12 50 8 62 -6z"/>
<path class="st0" d="M5073 1673 c-24 -5 -63 -47 -63 -69 0 -23 44 -63 85 -76 25 -8 41
-20 43 -32 4 -21 -15 -20 -74 5 -17 7 -39 9 -49 6 -16 -7 -16 -9 -3 -30 19
-28 83 -50 127 -43 38 6 81 41 81 66 0 30 -40 69 -80 80 -43 12 -58 26 -42 42
8 8 15 8 24 1 7 -6 27 -14 45 -17 42 -9 52 9 21 40 -24 25 -73 36 -115 27z"/>
<path class="st0" d="M4622 1553 l3 -118 35 0 35 0 3 118 3 117 -41 0 -41 0 3 -117z"/>
</g>
</svg>
